<?xml version="1.0" standalone="no"?>
<!DOCTYPE svg PUBLIC "-//W3C//DTD SVG 20010904//EN"
 "http://www.w3.org/TR/2001/REC-SVG-20010904/DTD/svg10.dtd">
<svg version="1.0" xmlns="http://www.w3.org/2000/svg"
 width="360.000000pt" height="302.000000pt" viewBox="0 0 360.000000 302.000000"
 preserveAspectRatio="xMidYMid meet">

<g transform="translate(0.000000,302.000000) scale(0.100000,-0.100000)"
fill="#000000" stroke="none">
<path d="M457 2995 c-10 -14 -14 -25 -9 -25 10 0 42 33 42 43 0 14 -16 5 -33
-18z"/>
<path d="M290 2970 c0 -5 5 -10 11 -10 5 0 7 5 4 10 -3 6 -8 10 -11 10 -2 0
-4 -4 -4 -10z"/>
<path d="M20 2945 c0 -8 4 -15 10 -15 5 0 7 7 4 15 -4 8 -8 15 -10 15 -2 0 -4
-7 -4 -15z"/>
<path d="M200 2944 c0 -8 5 -12 10 -9 6 4 8 11 5 16 -9 14 -15 11 -15 -7z"/>
<path d="M245 2950 c-19 -8 -19 -9 3 -9 12 -1 22 4 22 9 0 6 -1 10 -2 9 -2 0
-12 -4 -23 -9z"/>
<path d="M396 2951 c-3 -5 -16 -11 -28 -14 -13 -2 -56 -12 -96 -21 -76 -17
-143 -57 -141 -86 0 -10 2 -11 6 -2 2 6 9 10 14 6 5 -3 12 2 15 11 7 18 64 44
111 51 37 4 109 31 138 51 16 11 17 13 3 13 -9 0 -19 -4 -22 -9z"/>
<path d="M347 2903 c-4 -3 -7 -11 -7 -17 0 -6 5 -5 12 2 6 6 9 14 7 17 -3 3
-9 2 -12 -2z"/>
<path d="M465 2890 c-3 -5 -1 -19 6 -31 11 -21 12 -21 22 -4 7 14 7 20 -1 23
-7 2 -10 8 -6 13 3 5 1 9 -5 9 -5 0 -13 -4 -16 -10z"/>
<path d="M296 2863 c-6 -14 -5 -15 5 -6 7 7 10 15 7 18 -3 3 -9 -2 -12 -12z"/>
<path d="M1110 2841 c0 -12 6 -21 15 -21 8 0 15 4 15 9 0 5 -7 14 -15 21 -13
10 -15 9 -15 -9z"/>
<path d="M23 2830 c1 -11 5 -20 9 -20 11 0 10 28 -1 35 -6 3 -9 -4 -8 -15z"/>
<path d="M446 2842 c-3 -5 1 -9 9 -9 8 0 12 4 9 9 -3 4 -7 8 -9 8 -2 0 -6 -4
-9 -8z"/>
<path d="M1043 2809 c9 -5 17 -16 17 -23 0 -8 7 -17 16 -20 11 -4 14 -12 9
-24 -13 -31 -23 -266 -12 -277 7 -7 8 -6 3 3 -4 6 -3 12 2 12 8 0 11 25 16
150 2 31 12 74 24 99 12 25 21 45 19 46 -1 2 -24 12 -51 24 -51 22 -73 27 -43
10z"/>
<path d="M1156 2811 c-6 -9 17 -22 47 -26 26 -3 20 14 -9 25 -31 12 -31 12
-38 1z"/>
<path d="M528 2773 c6 -2 12 -11 12 -19 0 -8 5 -14 10 -14 6 0 10 4 10 8 0 12
-22 32 -34 31 -6 0 -5 -3 2 -6z"/>
<path d="M920 2771 c0 -17 30 -25 43 -12 8 8 8 11 0 11 -6 0 -18 3 -27 6 -9 3
-16 1 -16 -5z"/>
<path d="M1230 2770 c0 -5 6 -10 14 -10 8 0 17 -7 20 -16 9 -24 8 -26 -14 -19
-16 5 -20 2 -20 -18 0 -23 2 -24 25 -14 34 16 40 42 16 66 -22 22 -41 27 -41
11z"/>
<path d="M880 2760 c0 -12 28 -25 36 -17 3 3 -4 10 -15 17 -15 7 -21 7 -21 0z"/>
<path d="M977 2731 c4 -17 1 -21 -20 -21 -33 0 -39 -11 -19 -30 14 -13 15 -12
9 3 -5 13 -1 17 14 17 23 0 36 27 21 42 -8 8 -9 5 -5 -11z"/>
<path d="M183 2716 c25 -11 26 -14 13 -25 -21 -17 -20 -32 0 -24 12 5 15 1 11
-13 -3 -10 -8 -32 -11 -47 -4 -15 -11 -25 -16 -22 -6 4 -7 -1 -3 -11 6 -15 7
-15 18 -1 9 12 15 13 23 5 9 -9 7 -17 -6 -32 l-17 -21 25 20 c14 11 27 21 29
22 2 2 -4 11 -13 22 -10 11 -13 22 -8 25 6 3 12 1 14 -5 3 -8 9 -6 20 5 12 12
18 13 21 3 4 -8 6 -6 6 4 1 11 9 15 34 12 17 -2 26 0 20 3 -7 3 -13 10 -13 15
0 14 43 11 65 -5 11 -7 28 -13 38 -13 33 1 17 13 -34 27 -28 8 -46 16 -40 18
19 6 12 22 -10 22 -11 0 -18 -4 -15 -9 7 -10 -56 2 -100 20 -16 6 -40 13 -54
14 -24 3 -24 3 3 -9z"/>
<path d="M386 2705 c-4 -12 -1 -16 11 -13 18 3 21 20 5 26 -5 1 -12 -4 -16
-13z"/>
<path d="M785 2651 c-3 -5 -1 -12 5 -16 5 -3 10 -1 10 5 0 7 7 10 15 6 8 -3
15 -1 15 4 0 13 -37 13 -45 1z"/>
<path d="M757 2620 c3 -11 7 -20 9 -20 2 0 4 9 4 20 0 11 -4 20 -9 20 -5 0 -7
-9 -4 -20z"/>
<path d="M477 2614 c3 -8 8 -14 12 -14 4 0 13 -11 19 -25 6 -14 8 -25 3 -25
-5 0 -12 6 -15 13 -3 6 -4 -6 -2 -28 1 -22 -2 -50 -7 -62 l-10 -23 -12 23 c-7
13 -8 27 -3 34 6 7 2 16 -10 25 -10 7 -21 21 -25 31 -3 9 -13 17 -22 17 -8 0
-15 9 -15 20 0 11 -7 20 -15 20 -18 0 -34 -32 -18 -37 14 -5 3 -53 -12 -53 -7
0 -15 4 -17 10 -2 5 -17 2 -35 -6 -36 -18 -67 -74 -65 -119 3 -61 7 -85 15
-85 4 0 19 -7 32 -16 21 -14 22 -18 10 -30 -19 -19 -31 -18 -48 6 -7 10 -26
24 -41 30 -40 15 -45 12 -13 -9 17 -11 24 -21 18 -25 -5 -4 -7 -14 -4 -22 5
-13 8 -13 15 -2 7 9 8 7 5 -9 -4 -16 -1 -20 10 -16 12 5 14 1 8 -16 -4 -14 -1
-31 9 -47 13 -18 14 -29 6 -44 -6 -11 -16 -17 -22 -14 -7 5 -6 11 5 19 21 15
22 29 3 22 -8 -3 -17 -1 -19 6 -9 24 -16 0 -9 -28 6 -22 22 -36 62 -57 29 -15
57 -33 61 -39 12 -20 111 -19 131 1 9 9 35 20 57 24 23 3 41 11 41 16 0 6 6
10 13 10 7 0 28 16 47 35 19 19 39 35 46 35 13 0 164 157 164 171 0 5 7 9 15
9 8 0 15 5 15 11 0 6 7 9 15 5 10 -4 15 1 15 14 0 11 7 20 15 20 27 0 16 19
-25 45 -22 14 -42 25 -45 25 -2 0 -18 -26 -35 -57 -44 -85 -119 -185 -184
-249 -60 -59 -76 -65 -53 -21 8 15 17 24 20 21 3 -4 13 1 22 10 18 18 11 40
-10 32 -19 -7 -30 33 -15 48 10 8 11 8 6 -1 -7 -14 23 -33 51 -33 16 1 15 3
-4 19 -13 11 -23 25 -23 31 0 7 -8 10 -19 7 -15 -4 -21 2 -26 23 -7 32 9 70
28 69 9 0 9 -2 -1 -6 -6 -2 -10 -9 -7 -13 3 -5 12 -7 20 -3 13 5 20 -7 16 -29
0 -5 6 -8 14 -8 17 0 19 11 6 25 -5 6 -5 19 -1 30 8 19 9 19 9 -2 1 -18 7 -23
26 -23 29 0 31 10 9 52 -12 24 -18 28 -25 17 -8 -12 -11 -12 -19 1 -5 8 -10
20 -10 25 0 6 5 3 10 -5 6 -10 10 -11 10 -3 0 15 25 12 58 -5 20 -12 22 -11
22 13 0 19 8 29 29 38 17 7 27 17 23 23 -7 10 -95 54 -109 54 -3 0 -14 6 -22
13 -17 15 -108 55 -153 68 -21 6 -26 4 -21 -7z m-146 -91 c7 -40 5 -61 -8 -75
-8 -9 -13 -23 -11 -30 5 -13 -1 -21 -34 -47 -16 -12 -19 -10 -28 15 -6 15 -8
40 -5 55 10 45 81 112 86 82z m116 -94 c-3 -23 -9 -45 -14 -48 -4 -3 -13 -15
-19 -25 -6 -11 -23 -23 -38 -27 -26 -7 -27 -7 -20 24 11 52 23 69 45 62 10 -4
20 -2 20 4 3 21 4 26 12 39 15 22 20 12 14 -29z m-47 27 c0 -3 -4 -8 -10 -11
-5 -3 -10 -1 -10 4 0 6 5 11 10 11 6 0 10 -2 10 -4z m131 -226 c6 0 7 4 4 10
-3 6 1 7 10 3 13 -5 14 -7 3 -14 -10 -7 -10 -9 0 -9 6 0 12 -7 12 -15 0 -14
-3 -13 -25 2 -13 10 -24 25 -24 33 0 10 2 11 6 3 2 -7 9 -13 14 -13z m7 -68
c2 -12 -2 -22 -8 -22 -6 0 -8 5 -5 10 4 6 1 18 -7 27 -11 14 -11 16 2 11 8 -2
16 -14 18 -26z"/>
<path d="M770 2575 c0 -8 4 -15 10 -15 5 0 7 7 4 15 -4 8 -8 15 -10 15 -2 0
-4 -7 -4 -15z"/>
<path d="M862 2548 c-14 -14 -16 -28 -3 -28 5 0 11 9 14 20 6 23 5 24 -11 8z"/>
<path d="M940 2549 c0 -4 7 -9 15 -13 9 -3 15 0 15 8 0 7 -7 13 -15 13 -8 0
-15 -4 -15 -8z"/>
<path d="M952 2500 c0 -14 2 -19 5 -12 2 6 2 18 0 25 -3 6 -5 1 -5 -13z"/>
<path d="M855 2490 c-7 -12 2 -30 16 -30 12 0 12 27 0 35 -5 3 -12 1 -16 -5z"/>
<path d="M175 2470 c-3 -5 -1 -10 4 -10 6 0 11 5 11 10 0 6 -2 10 -4 10 -3 0
-8 -4 -11 -10z"/>
<path d="M130 2322 c0 -4 9 -13 20 -20 19 -12 20 -11 8 8 -13 20 -28 27 -28
12z"/>
<path d="M570 2314 c0 -11 12 -24 27 -31 46 -22 41 -4 -10 36 -15 12 -17 11
-17 -5z"/>
<path d="M255 2300 c-3 -5 1 -10 10 -10 9 0 13 5 10 10 -3 6 -8 10 -10 10 -2
0 -7 -4 -10 -10z"/>
<path d="M920 2270 c0 -5 7 -10 15 -10 8 0 15 5 15 10 0 6 -7 10 -15 10 -8 0
-15 -4 -15 -10z"/>
<path d="M170 2121 c0 -6 5 -13 10 -16 6 -3 10 1 10 9 0 9 -4 16 -10 16 -5 0
-10 -4 -10 -9z"/>
<path d="M127 2001 c2 -10 11 -18 19 -18 19 0 18 10 -5 24 -16 10 -18 9 -14
-6z"/>
<path d="M482 1890 c0 -14 2 -19 5 -12 2 6 2 18 0 25 -3 6 -5 1 -5 -13z"/>
<path d="M316 1885 c-3 -8 -1 -15 4 -15 6 0 10 7 10 15 0 8 -2 15 -4 15 -2 0
-6 -7 -10 -15z"/>
<path d="M355 1870 c-3 -5 -1 -10 4 -10 6 0 11 5 11 10 0 6 -2 10 -4 10 -3 0
-8 -4 -11 -10z"/>
</g>
</svg>
